# xmcd
#
# Track frame offsets: 
#        150
#        11936
#        22115
#        31829
#        42876
#        55217
#        66924
#        75577
#        87647
#        101794
#        110803
#        120152
#        128332
#        137049
#        145871
#        159763
#        169430
#        185237
#        198796
#        215208
#        224207
#
# Disc length: 3135 seconds
#
# Revision: 1
# Processed by: cddbd v1.5.2PL0 Copyright (c) Steve Scherf et al.
# Submitted via: ExactAudioCopy v1.1
#
DISCID=3c0c3d15
DTITLE=Elvis Presley - The Best
DYEAR=2004
DGENRE=Dance
TTITLE0=Jailhouse Rock
TTITLE1=Hound Dog
TTITLE2=Heatbreak Hotel
TTITLE3=Good Luck Charm
TTITLE4=Love Me Tender
TTITLE5=Too Much
TTITLE6=Surrender
TTITLE7=I Want You, I Need You, I Love You
TTITLE8=Are You Lonesome Tonight?
TTITLE9=All Shook UP
TTITLE10=Don't Be Cruel
TTITLE11=(Let Me Be Your) Teddy Bear
TTITLE12=Ready Teddy
TTITLE13=Tutti Frutti
TTITLE14=In The Ghetto
TTITLE15=(Marie's The Name) His Latest Flame
TTITLE16=Fever
TTITLE17=Can't Help Falling In Love
TTITLE18=Vrying In The Chapel
TTITLE19=Rock-A-Hula Baby
TTITLE20=Viva Las Vegas
EXTD=
EXTT0=
EXTT1=
EXTT2=
EXTT3=
EXTT4=
EXTT5=
EXTT6=
EXTT7=
EXTT8=
EXTT9=
EXTT10=
EXTT11=
EXTT12=
EXTT13=
EXTT14=
EXTT15=
EXTT16=
EXTT17=
EXTT18=
EXTT19=
EXTT20=
PLAYORDER=
